# xmcd CD database file
#
# Track frame offsets:
#	151
#	17538
#	29926
#	50823
#	69552
#	89423
#	113338
#	128495
#	142457
#	156733
#	176198
#	186584
#	214558
#	226702
#	241793
#
# Disc length: 3455 seconds
#
# Revision: 0
# Processed by: cddbd v1.4PL0 Copyright (c) Steve Scherf et al.
# Submitted via: CDex 1.40Release
#
DISCID=dc0d7d0f
DTITLE=Little Mac Simmons - Blue Lights
DYEAR=2002
DGENRE=Blues
TTITLE0=Help me
TTITLE1=You mistreated me
TTITLE2=Blue lights
TTITLE3=Killing floor
TTITLE4=Mystery train
TTITLE5=Last night
TTITLE6=So unhappy
TTITLE7=Mother-in-law blues
TTITLE8=Poison ivy
TTITLE9=Sad hours
TTITLE10=Messin' with the kid
TTITLE11=Last night
TTITLE12=Talk to you Baby
TTITLE13=Driving wheel
TTITLE14=Juke
EXTD=YEAR: 2002 ID3G: 0
EXTT0=
EXTT1=
EXTT2=
EXTT3=
EXTT4=
EXTT5=
EXTT6=
EXTT7=
EXTT8=
EXTT9=
EXTT10=
EXTT11=
EXTT12=
EXTT13=
EXTT14=
PLAYORDER=
